<svg viewBox="0 0 32 32" xmlns="http://www.w3.org/2000/svg" fill="currentColor">
    <path d="M28.16 28H3.84a2 2 0 0 1-2-2V10.2a2 2 0 0 1 2-2H28.16a2 2 0 0 1 2 2V26a2 2 0 0 1-2 2zM3.84 10.2V26h24.32V10.2z"/>
    <rect x="12.6" y="-0.56" width="6.8" height="26.33" rx="1" transform="rotate(90 16 12.6)" />
    <path d="M28.16 17H3.84a2 2 0 0 1-2-2V10.2a2 2 0 0 1 2-2H28.16a2 2 0 0 1 2 2V15a2 2 0 0 1-2 2zM3.84 10.2V15h24.32V10.2z"/>
    <rect x="13.91" y="13.62" width="4.19" height="4.77" rx="1" transform="rotate(90 16 16)" />
    <path d="M17.38 19.09h-2.76a2 2 0 0 1-2-2v-2.18a2 2 0 0 1 2-2h2.76a2 2 0 0 1 2 2v2.18a2 2 0 0 1-2 2zm-2.76-4.18V17h2.76v-2.09z"/>
    <path d="M23.62 10.2H8.38V6.32a3 3 0 0 1 3-3h9.24a3 3 0 0 1 3 3v3.88zm-13.24-2h11.24V6.32a1 1 0 0 0-1-1H11.38a1 1 0 0 0-1 1z"/>
</svg>