<svg viewBox="0 0 24 24" xmlns="http://www.w3.org/2000/svg" fill="none" stroke="currentColor" stroke-width="2" stroke-linecap="round" stroke-linejoin="round">
  <path d="M9 21v-7.4c0-.56 0-.84.11-1.05.1-.19.25-.34.44-.44.21-.11.49-.11 1.05-.11h2.8c.56 0 .84 0 1.05.11.19.1.34.25.44.44.11.21.11.49.11 1.05V21m-3.98-18.24L4.24 8.04c-.45.35-.68.53-.84.75-.15.2-.25.42-.32.65-.07.26-.07.55-.07 1.13v7.23c0 1.12 0 1.68.22 2.11.19.37.5.68.87.87.43.22.99.22 2.11.22h11.6c1.12 0 1.68 0 2.11-.22.37-.19.68-.5.87-.87.22-.43.22-.99.22-2.11v-7.23c0-.58 0-.87-.07-1.13-.07-.23-.17-.45-.32-.65-.16-.22-.39-.4-.84-.75l-6.78-5.28c-.35-.27-.53-.41-.72-.46a1.27 1.27 0 0 0-.52 0c-.19.05-.37.19-.72.46z"/>
</svg>